<svg xmlns="http://www.w3.org/2000/svg" width="1200" height="380" viewBox="0 0 1200 380">
  <defs>
    <pattern id="tsDots" x="0" y="0" width="40" height="40" patternUnits="userSpaceOnUse">
      <circle cx="20" cy="20" r="1" fill="#000000" opacity="0.06"/>
    </pattern>
    <filter id="tsShadow">
      <feDropShadow dx="0" dy="2" stdDeviation="6" flood-color="#000000" flood-opacity="0.04"/>
    </filter>
  </defs>

  <rect width="1200" height="380" fill="#FAFAFA" rx="12"/>
  <rect width="1200" height="380" fill="url(#tsDots)" rx="12"/>

  <text x="600" y="36" text-anchor="middle" font-family="-apple-system, BlinkMacSystemFont, sans-serif" font-size="11" font-weight="600" fill="#AEAEB2" letter-spacing="2">TECH STACK</text>

  <!-- Row 1 -->
  <rect x="30" y="56" width="370" height="140" rx="14" fill="white" filter="url(#tsShadow)"/>
  <rect x="30" y="56" width="370" height="140" rx="14" fill="none" stroke="#000000" stroke-opacity="0.04" stroke-width="0.5"/>
  <circle cx="54" cy="78" r="4" fill="#22C55E"/>
  <text x="66" y="82" font-family="-apple-system, sans-serif" font-size="12" font-weight="600" fill="#1D1D1F">Frontend</text>
  <rect x="48" y="100" width="44" height="44" rx="10" fill="#61DAFB" fill-opacity="0.1"/><text x="70" y="127" text-anchor="middle" font-family="-apple-system, sans-serif" font-size="10" font-weight="600" fill="#61DAFB">Re</text>
  <rect x="100" y="100" width="44" height="44" rx="10" fill="#1D1D1F" fill-opacity="0.06"/><text x="122" y="127" text-anchor="middle" font-family="-apple-system, sans-serif" font-size="10" font-weight="600" fill="#1D1D1F">Nx</text>
  <rect x="152" y="100" width="44" height="44" rx="10" fill="#02569B" fill-opacity="0.1"/><text x="174" y="127" text-anchor="middle" font-family="-apple-system, sans-serif" font-size="10" font-weight="600" fill="#02569B">Fl</text>
  <rect x="204" y="100" width="44" height="44" rx="10" fill="#06B6D4" fill-opacity="0.1"/><text x="226" y="127" text-anchor="middle" font-family="-apple-system, sans-serif" font-size="10" font-weight="600" fill="#06B6D4">Tw</text>
  <rect x="256" y="100" width="44" height="44" rx="10" fill="#764ABC" fill-opacity="0.1"/><text x="278" y="127" text-anchor="middle" font-family="-apple-system, sans-serif" font-size="10" font-weight="600" fill="#764ABC">Rx</text>
  <text x="70" y="158" text-anchor="middle" font-family="-apple-system, sans-serif" font-size="9" fill="#AEAEB2">React</text>
  <text x="122" y="158" text-anchor="middle" font-family="-apple-system, sans-serif" font-size="9" fill="#AEAEB2">Next.js</text>
  <text x="174" y="158" text-anchor="middle" font-family="-apple-system, sans-serif" font-size="9" fill="#AEAEB2">Flutter</text>
  <text x="226" y="158" text-anchor="middle" font-family="-apple-system, sans-serif" font-size="9" fill="#AEAEB2">Tailwind</text>
  <text x="278" y="158" text-anchor="middle" font-family="-apple-system, sans-serif" font-size="9" fill="#AEAEB2">Redux</text>

  <rect x="415" y="56" width="370" height="140" rx="14" fill="white" filter="url(#tsShadow)"/>
  <rect x="415" y="56" width="370" height="140" rx="14" fill="none" stroke="#000000" stroke-opacity="0.04" stroke-width="0.5"/>
  <circle cx="439" cy="78" r="4" fill="#A855F7"/>
  <text x="451" y="82" font-family="-apple-system, sans-serif" font-size="12" font-weight="600" fill="#1D1D1F">Backend</text>
  <rect x="433" y="100" width="44" height="44" rx="10" fill="#339933" fill-opacity="0.1"/><text x="455" y="127" text-anchor="middle" font-family="-apple-system, sans-serif" font-size="10" font-weight="600" fill="#339933">No</text>
  <rect x="485" y="100" width="44" height="44" rx="10" fill="#3776AB" fill-opacity="0.1"/><text x="507" y="127" text-anchor="middle" font-family="-apple-system, sans-serif" font-size="10" font-weight="600" fill="#3776AB">Py</text>
  <rect x="537" y="100" width="44" height="44" rx="10" fill="#4169E1" fill-opacity="0.1"/><text x="559" y="127" text-anchor="middle" font-family="-apple-system, sans-serif" font-size="10" font-weight="600" fill="#4169E1">Pg</text>
  <rect x="589" y="100" width="44" height="44" rx="10" fill="#47A248" fill-opacity="0.1"/><text x="611" y="127" text-anchor="middle" font-family="-apple-system, sans-serif" font-size="10" font-weight="600" fill="#47A248">Mg</text>
  <rect x="641" y="100" width="44" height="44" rx="10" fill="#E10098" fill-opacity="0.1"/><text x="663" y="127" text-anchor="middle" font-family="-apple-system, sans-serif" font-size="10" font-weight="600" fill="#E10098">Gq</text>
  <text x="455" y="158" text-anchor="middle" font-family="-apple-system, sans-serif" font-size="9" fill="#AEAEB2">Node.js</text>
  <text x="507" y="158" text-anchor="middle" font-family="-apple-system, sans-serif" font-size="9" fill="#AEAEB2">Python</text>
  <text x="559" y="158" text-anchor="middle" font-family="-apple-system, sans-serif" font-size="9" fill="#AEAEB2">Postgres</text>
  <text x="611" y="158" text-anchor="middle" font-family="-apple-system, sans-serif" font-size="9" fill="#AEAEB2">MongoDB</text>
  <text x="663" y="158" text-anchor="middle" font-family="-apple-system, sans-serif" font-size="9" fill="#AEAEB2">GraphQL</text>

  <rect x="800" y="56" width="370" height="140" rx="14" fill="white" filter="url(#tsShadow)"/>
  <rect x="800" y="56" width="370" height="140" rx="14" fill="none" stroke="#000000" stroke-opacity="0.04" stroke-width="0.5"/>
  <circle cx="824" cy="78" r="4" fill="#6366F1"/>
  <text x="836" y="82" font-family="-apple-system, sans-serif" font-size="12" font-weight="600" fill="#1D1D1F">AI &amp; LLM</text>
  <rect x="818" y="100" width="44" height="44" rx="10" fill="#412991" fill-opacity="0.1"/><text x="840" y="127" text-anchor="middle" font-family="-apple-system, sans-serif" font-size="10" font-weight="600" fill="#412991">G4</text>
  <rect x="870" y="100" width="44" height="44" rx="10" fill="#D97757" fill-opacity="0.1"/><text x="892" y="127" text-anchor="middle" font-family="-apple-system, sans-serif" font-size="10" font-weight="600" fill="#D97757">Cl</text>
  <rect x="922" y="100" width="44" height="44" rx="10" fill="#4169E1" fill-opacity="0.1"/><text x="944" y="127" text-anchor="middle" font-family="-apple-system, sans-serif" font-size="9" font-weight="600" fill="#4169E1">RAG</text>
  <rect x="974" y="100" width="44" height="44" rx="10" fill="#6366F1" fill-opacity="0.1"/><text x="996" y="127" text-anchor="middle" font-family="-apple-system, sans-serif" font-size="9" font-weight="600" fill="#6366F1">Ag</text>
  <text x="840" y="158" text-anchor="middle" font-family="-apple-system, sans-serif" font-size="9" fill="#AEAEB2">GPT-4</text>
  <text x="892" y="158" text-anchor="middle" font-family="-apple-system, sans-serif" font-size="9" fill="#AEAEB2">Claude</text>
  <text x="944" y="158" text-anchor="middle" font-family="-apple-system, sans-serif" font-size="9" fill="#AEAEB2">pgvector</text>
  <text x="996" y="158" text-anchor="middle" font-family="-apple-system, sans-serif" font-size="9" fill="#AEAEB2">Agents</text>

  <!-- Row 2 -->
  <rect x="30" y="212" width="370" height="140" rx="14" fill="white" filter="url(#tsShadow)"/>
  <rect x="30" y="212" width="370" height="140" rx="14" fill="none" stroke="#000000" stroke-opacity="0.04" stroke-width="0.5"/>
  <circle cx="54" cy="234" r="4" fill="#F59E0B"/>
  <text x="66" y="238" font-family="-apple-system, sans-serif" font-size="12" font-weight="600" fill="#1D1D1F">DevOps</text>
  <rect x="48" y="256" width="44" height="44" rx="10" fill="#FF9900" fill-opacity="0.1"/><text x="70" y="283" text-anchor="middle" font-family="-apple-system, sans-serif" font-size="10" font-weight="600" fill="#FF9900">AW</text>
  <rect x="100" y="256" width="44" height="44" rx="10" fill="#0078D4" fill-opacity="0.1"/><text x="122" y="283" text-anchor="middle" font-family="-apple-system, sans-serif" font-size="10" font-weight="600" fill="#0078D4">Az</text>
  <rect x="152" y="256" width="44" height="44" rx="10" fill="#2496ED" fill-opacity="0.1"/><text x="174" y="283" text-anchor="middle" font-family="-apple-system, sans-serif" font-size="10" font-weight="600" fill="#2496ED">Dk</text>
  <rect x="204" y="256" width="44" height="44" rx="10" fill="#326CE5" fill-opacity="0.1"/><text x="226" y="283" text-anchor="middle" font-family="-apple-system, sans-serif" font-size="10" font-weight="600" fill="#326CE5">K8</text>
  <rect x="256" y="256" width="44" height="44" rx="10" fill="#1D1D1F" fill-opacity="0.06"/><text x="278" y="283" text-anchor="middle" font-family="-apple-system, sans-serif" font-size="10" font-weight="600" fill="#1D1D1F">CI</text>
  <text x="70" y="314" text-anchor="middle" font-family="-apple-system, sans-serif" font-size="9" fill="#AEAEB2">AWS</text>
  <text x="122" y="314" text-anchor="middle" font-family="-apple-system, sans-serif" font-size="9" fill="#AEAEB2">Azure</text>
  <text x="174" y="314" text-anchor="middle" font-family="-apple-system, sans-serif" font-size="9" fill="#AEAEB2">Docker</text>
  <text x="226" y="314" text-anchor="middle" font-family="-apple-system, sans-serif" font-size="9" fill="#AEAEB2">K8s</text>
  <text x="278" y="314" text-anchor="middle" font-family="-apple-system, sans-serif" font-size="9" fill="#AEAEB2">CI/CD</text>

  <rect x="415" y="212" width="370" height="140" rx="14" fill="white" filter="url(#tsShadow)"/>
  <rect x="415" y="212" width="370" height="140" rx="14" fill="none" stroke="#000000" stroke-opacity="0.04" stroke-width="0.5"/>
  <circle cx="439" cy="234" r="4" fill="#0EA5E9"/>
  <text x="451" y="238" font-family="-apple-system, sans-serif" font-size="12" font-weight="600" fill="#1D1D1F">Mobile &amp; Real-time</text>
  <rect x="433" y="256" width="44" height="44" rx="10" fill="#02569B" fill-opacity="0.1"/><text x="455" y="283" text-anchor="middle" font-family="-apple-system, sans-serif" font-size="10" font-weight="600" fill="#02569B">Fl</text>
  <rect x="485" y="256" width="44" height="44" rx="10" fill="#5A0FC8" fill-opacity="0.1"/><text x="507" y="283" text-anchor="middle" font-family="-apple-system, sans-serif" font-size="9" font-weight="600" fill="#5A0FC8">PW</text>
  <rect x="537" y="256" width="44" height="44" rx="10" fill="#C084FC" fill-opacity="0.1"/><text x="559" y="283" text-anchor="middle" font-family="-apple-system, sans-serif" font-size="10" font-weight="600" fill="#C084FC">WS</text>
  <rect x="589" y="256" width="44" height="44" rx="10" fill="#F67F62" fill-opacity="0.1"/><text x="611" y="283" text-anchor="middle" font-family="-apple-system, sans-serif" font-size="10" font-weight="600" fill="#F67F62">Tw</text>
  <text x="455" y="314" text-anchor="middle" font-family="-apple-system, sans-serif" font-size="9" fill="#AEAEB2">Flutter</text>
  <text x="507" y="314" text-anchor="middle" font-family="-apple-system, sans-serif" font-size="9" fill="#AEAEB2">PWA</text>
  <text x="559" y="314" text-anchor="middle" font-family="-apple-system, sans-serif" font-size="9" fill="#AEAEB2">WebSocket</text>
  <text x="611" y="314" text-anchor="middle" font-family="-apple-system, sans-serif" font-size="9" fill="#AEAEB2">Twilio</text>

  <rect x="800" y="212" width="370" height="140" rx="14" fill="white" filter="url(#tsShadow)"/>
  <rect x="800" y="212" width="370" height="140" rx="14" fill="none" stroke="#000000" stroke-opacity="0.04" stroke-width="0.5"/>
  <circle cx="824" cy="234" r="4" fill="#2563EB"/>
  <text x="836" y="238" font-family="-apple-system, sans-serif" font-size="12" font-weight="600" fill="#1D1D1F">Design &amp; Tools</text>
  <rect x="818" y="256" width="44" height="44" rx="10" fill="#F24E1E" fill-opacity="0.1"/><text x="840" y="283" text-anchor="middle" font-family="-apple-system, sans-serif" font-size="10" font-weight="600" fill="#F24E1E">Fi</text>
  <rect x="870" y="256" width="44" height="44" rx="10" fill="#0055FF" fill-opacity="0.1"/><text x="892" y="283" text-anchor="middle" font-family="-apple-system, sans-serif" font-size="10" font-weight="600" fill="#0055FF">Fr</text>
  <rect x="922" y="256" width="44" height="44" rx="10" fill="#1D1D1F" fill-opacity="0.06"/><text x="944" y="283" text-anchor="middle" font-family="-apple-system, sans-serif" font-size="10" font-weight="600" fill="#1D1D1F">v0</text>
  <rect x="974" y="256" width="44" height="44" rx="10" fill="#D97757" fill-opacity="0.1"/><text x="996" y="283" text-anchor="middle" font-family="-apple-system, sans-serif" font-size="10" font-weight="600" fill="#D97757">Cc</text>
  <text x="840" y="314" text-anchor="middle" font-family="-apple-system, sans-serif" font-size="9" fill="#AEAEB2">Figma</text>
  <text x="892" y="314" text-anchor="middle" font-family="-apple-system, sans-serif" font-size="9" fill="#AEAEB2">Framer</text>
  <text x="944" y="314" text-anchor="middle" font-family="-apple-system, sans-serif" font-size="9" fill="#AEAEB2">v0</text>
  <text x="996" y="314" text-anchor="middle" font-family="-apple-system, sans-serif" font-size="9" fill="#AEAEB2">Claude</text>
</svg>
